<?xml version="1.0" standalone="no"?><!DOCTYPE svg PUBLIC "-//W3C//DTD SVG 1.1//EN" "http://www.w3.org/Graphics/SVG/1.1/DTD/svg11.dtd"><svg t="1532670865504" class="icon" style="" viewBox="0 0 1024 1024" version="1.1" xmlns="http://www.w3.org/2000/svg" p-id="12869" xmlns:xlink="http://www.w3.org/1999/xlink" width="200" height="200"><defs><style type="text/css"></style></defs><path d="M452.87552 32c115.2 0 208 92.8 208 208s-92.8 208-208 208-208-92.8-208-208 92.8-208 208-208m0-32c-132.8 0-240 107.2-240 240s107.2 240 240 240 240-107.2 240-240-107.2-240-240-240z" fill="" p-id="12870"></path><path d="M588.87552 491.2l4.8-24-4.8-3.2s-145.6-19.2-305.6 0c-11.2 3.2-148.8 43.2-236.8 184-68.8 118.4-108.8 328 236.8 347.2h217.6l6.4-33.6H289.67552C-55.92448 942.4 9.67552 768 78.47552 649.6c88-140.8 212.8-161.6 225.6-164.8 160-19.2 280 3.2 280 3.2l4.8 3.2zM750.47552 689.6c35.2 0 64 28.8 64 64s-28.8 64-64 64-64-28.8-64-64 28.8-64 64-64m0-32c-52.8 0-96 43.2-96 96s43.2 96 96 96 96-43.2 96-96-43.2-96-96-96z" fill="" p-id="12871"></path><path d="M692.87552 520c1.6 3.2 3.2 8 4.8 9.6 11.2 27.2 24 54.4 52.8 54.4 4.8 0 8 0 12.8-1.6 19.2-6.4 32-25.6 43.2-44.8 3.2-4.8 6.4-11.2 9.6-14.4l35.2 12.8c-1.6 3.2-3.2 8-3.2 11.2-8 25.6-22.4 68.8 16 83.2 4.8 1.6 11.2 3.2 16 3.2 14.4 0 32-6.4 48-12.8 4.8-1.6 11.2-4.8 17.6-6.4l12.8 22.4 9.6 17.6c-4.8 3.2-9.6 6.4-12.8 8-27.2 17.6-52.8 33.6-49.6 60.8 1.6 32 38.4 41.6 67.2 49.6 4.8 1.6 9.6 3.2 16 4.8l-1.6 4.8-4.8 33.6c-4.8 0-11.2 0-17.6-1.6-9.6 0-19.2-1.6-28.8-1.6-40 0-51.2 17.6-54.4 33.6-3.2 22.4 9.6 43.2 22.4 65.6l9.6 14.4-14.4 12.8-12.8 9.6-9.6-9.6c-19.2-17.6-35.2-33.6-56-33.6-9.6 0-17.6 3.2-24 9.6-16 12.8-20.8 36.8-25.6 57.6-1.6 4.8-1.6 11.2-3.2 16h-30.4c-1.6-6.4-3.2-12.8-3.2-19.2-4.8-32-12.8-72-48-72-24 0-41.6 17.6-60.8 35.2-3.2 3.2-8 8-12.8 11.2-3.2-3.2-8-6.4-11.2-9.6l-9.6-9.6c1.6-3.2 4.8-6.4 6.4-9.6 16-22.4 40-57.6 11.2-81.6-14.4-12.8-36.8-14.4-64-16-8 0-19.2-1.6-27.2-1.6l-6.4-41.6c6.4-1.6 14.4-4.8 20.8-6.4 33.6-9.6 76.8-20.8 70.4-59.2-4.8-24-25.6-40-46.4-56-4.8-3.2-11.2-8-16-12.8l11.2-19.2 8-12.8c6.4 3.2 11.2 4.8 16 8 25.6 11.2 41.6 19.2 56 19.2s25.6-6.4 32-17.6c11.2-20.8 6.4-44.8 0-68.8-1.6-4.8-1.6-9.6-3.2-14.4l19.2-6.4 12.8-8m11.2-36.8c-24 8-44.8 16-67.2 24-24 8 12.8 72 0 92.8-1.6 1.6-3.2 1.6-4.8 1.6-16 0-67.2-32-83.2-32-1.6 0-4.8 0-4.8 1.6-12.8 22.4-25.6 43.2-38.4 65.6-12.8 22.4 62.4 52.8 65.6 76.8 3.2 19.2-97.6 27.2-94.4 46.4 4.8 25.6 9.6 51.2 14.4 78.4 3.2 19.2 84.8 9.6 99.2 22.4 12.8 11.2-46.4 67.2-35.2 76.8 19.2 16 28.8 27.2 48 43.2 1.6 1.6 4.8 1.6 6.4 1.6 20.8 0 54.4-51.2 76.8-51.2 19.2 0 16 91.2 33.6 91.2h62.4c22.4 0 17.6-67.2 35.2-81.6 1.6-1.6 3.2-1.6 4.8-1.6 16 0 51.2 48 67.2 48 1.6 0 3.2 0 4.8-1.6 17.6-14.4 35.2-30.4 54.4-44.8 17.6-14.4-36.8-65.6-33.6-89.6 1.6-6.4 9.6-8 22.4-8 16 0 36.8 3.2 51.2 3.2 12.8 0 20.8-1.6 22.4-8 4.8-25.6 9.6-51.2 12.8-76.8 3.2-20.8-86.4-22.4-86.4-43.2-3.2-16 78.4-48 70.4-64-14.4-24-28.8-48-41.6-73.6-1.6-3.2-4.8-4.8-9.6-4.8-19.2 0-57.6 20.8-76.8 20.8h-4.8c-17.6-6.4 25.6-80 6.4-88l-67.2-24h-3.2c-19.2 0-40 59.2-59.2 65.6h-1.6c-16 3.2-32-67.2-46.4-67.2z" fill="" p-id="12872"></path></svg>